<?xml version="1.0"?>
<!-- Generated by SVGo -->
<svg width="1500" height="1500"
     xmlns="http://www.w3.org/2000/svg" 
     xmlns:xlink="http://www.w3.org/1999/xlink">
<line x1="300" y1="500" x2="320" y2="500" stroke="yellow" stroke-width="2" />
<line x1="320" y1="500" x2="320" y2="480" stroke="yellow" stroke-width="2" />
<line x1="320" y1="480" x2="300" y2="480" stroke="yellow" stroke-width="2" />
<line x1="300" y1="480" x2="300" y2="460" stroke="yellow" stroke-width="2" />
<line x1="300" y1="460" x2="300" y2="440" stroke="yellow" stroke-width="2" />
<line x1="300" y1="440" x2="320" y2="440" stroke="yellow" stroke-width="2" />
<line x1="320" y1="440" x2="320" y2="460" stroke="yellow" stroke-width="2" />
<line x1="320" y1="460" x2="340" y2="460" stroke="yellow" stroke-width="2" />
<line x1="340" y1="460" x2="340" y2="440" stroke="yellow" stroke-width="2" />
<line x1="340" y1="440" x2="360" y2="440" stroke="yellow" stroke-width="2" />
<line x1="360" y1="440" x2="360" y2="460" stroke="yellow" stroke-width="2" />
<line x1="360" y1="460" x2="360" y2="480" stroke="yellow" stroke-width="2" />
<line x1="360" y1="480" x2="340" y2="480" stroke="yellow" stroke-width="2" />
<line x1="340" y1="480" x2="340" y2="500" stroke="yellow" stroke-width="2" />
<line x1="340" y1="500" x2="360" y2="500" stroke="yellow" stroke-width="2" />
<line x1="360" y1="500" x2="380" y2="500" stroke="yellow" stroke-width="2" />
<line x1="380" y1="500" x2="380" y2="480" stroke="yellow" stroke-width="2" />
<line x1="380" y1="480" x2="400" y2="480" stroke="yellow" stroke-width="2" />
<line x1="400" y1="480" x2="400" y2="500" stroke="yellow" stroke-width="2" />
<line x1="400" y1="500" x2="420" y2="500" stroke="yellow" stroke-width="2" />
<line x1="420" y1="500" x2="440" y2="500" stroke="yellow" stroke-width="2" />
<line x1="440" y1="500" x2="440" y2="480" stroke="yellow" stroke-width="2" />
<line x1="440" y1="480" x2="420" y2="480" stroke="yellow" stroke-width="2" />
<line x1="420" y1="480" x2="420" y2="460" stroke="yellow" stroke-width="2" />
<line x1="420" y1="460" x2="440" y2="460" stroke="yellow" stroke-width="2" />
<line x1="440" y1="460" x2="440" y2="440" stroke="yellow" stroke-width="2" />
<line x1="440" y1="440" x2="420" y2="440" stroke="yellow" stroke-width="2" />
<line x1="420" y1="440" x2="400" y2="440" stroke="yellow" stroke-width="2" />
<line x1="400" y1="440" x2="400" y2="460" stroke="yellow" stroke-width="2" />
<line x1="400" y1="460" x2="380" y2="460" stroke="yellow" stroke-width="2" />
<line x1="380" y1="460" x2="380" y2="440" stroke="yellow" stroke-width="2" />
<line x1="380" y1="440" x2="380" y2="420" stroke="yellow" stroke-width="2" />
<line x1="380" y1="420" x2="380" y2="400" stroke="yellow" stroke-width="2" />
<line x1="380" y1="400" x2="400" y2="400" stroke="yellow" stroke-width="2" />
<line x1="400" y1="400" x2="400" y2="420" stroke="yellow" stroke-width="2" />
<line x1="400" y1="420" x2="420" y2="420" stroke="yellow" stroke-width="2" />
<line x1="420" y1="420" x2="440" y2="420" stroke="yellow" stroke-width="2" />
<line x1="440" y1="420" x2="440" y2="400" stroke="yellow" stroke-width="2" />
<line x1="440" y1="400" x2="420" y2="400" stroke="yellow" stroke-width="2" />
<line x1="420" y1="400" x2="420" y2="380" stroke="yellow" stroke-width="2" />
<line x1="420" y1="380" x2="440" y2="380" stroke="yellow" stroke-width="2" />
<line x1="440" y1="380" x2="440" y2="360" stroke="yellow" stroke-width="2" />
<line x1="440" y1="360" x2="420" y2="360" stroke="yellow" stroke-width="2" />
<line x1="420" y1="360" x2="400" y2="360" stroke="yellow" stroke-width="2" />
<line x1="400" y1="360" x2="400" y2="380" stroke="yellow" stroke-width="2" />
<line x1="400" y1="380" x2="380" y2="380" stroke="yellow" stroke-width="2" />
<line x1="380" y1="380" x2="380" y2="360" stroke="yellow" stroke-width="2" />
<line x1="380" y1="360" x2="360" y2="360" stroke="yellow" stroke-width="2" />
<line x1="360" y1="360" x2="340" y2="360" stroke="yellow" stroke-width="2" />
<line x1="340" y1="360" x2="340" y2="380" stroke="yellow" stroke-width="2" />
<line x1="340" y1="380" x2="360" y2="380" stroke="yellow" stroke-width="2" />
<line x1="360" y1="380" x2="360" y2="400" stroke="yellow" stroke-width="2" />
<line x1="360" y1="400" x2="360" y2="420" stroke="yellow" stroke-width="2" />
<line x1="360" y1="420" x2="340" y2="420" stroke="yellow" stroke-width="2" />
<line x1="340" y1="420" x2="340" y2="400" stroke="yellow" stroke-width="2" />
<line x1="340" y1="400" x2="320" y2="400" stroke="yellow" stroke-width="2" />
<line x1="320" y1="400" x2="320" y2="420" stroke="yellow" stroke-width="2" />
<line x1="320" y1="420" x2="300" y2="420" stroke="yellow" stroke-width="2" />
<line x1="300" y1="420" x2="300" y2="400" stroke="yellow" stroke-width="2" />
<line x1="300" y1="400" x2="300" y2="380" stroke="yellow" stroke-width="2" />
<line x1="300" y1="380" x2="320" y2="380" stroke="yellow" stroke-width="2" />
<line x1="320" y1="380" x2="320" y2="360" stroke="yellow" stroke-width="2" />
<line x1="320" y1="360" x2="300" y2="360" stroke="yellow" stroke-width="2" />
<line x1="300" y1="360" x2="300" y2="340" stroke="yellow" stroke-width="2" />
<line x1="300" y1="340" x2="300" y2="320" stroke="yellow" stroke-width="2" />
<line x1="300" y1="320" x2="320" y2="320" stroke="yellow" stroke-width="2" />
<line x1="320" y1="320" x2="320" y2="340" stroke="yellow" stroke-width="2" />
<line x1="320" y1="340" x2="340" y2="340" stroke="yellow" stroke-width="2" />
<line x1="340" y1="340" x2="360" y2="340" stroke="yellow" stroke-width="2" />
<line x1="360" y1="340" x2="360" y2="320" stroke="yellow" stroke-width="2" />
<line x1="360" y1="320" x2="340" y2="320" stroke="yellow" stroke-width="2" />
<line x1="340" y1="320" x2="340" y2="300" stroke="yellow" stroke-width="2" />
<line x1="340" y1="300" x2="360" y2="300" stroke="yellow" stroke-width="2" />
<line x1="360" y1="300" x2="360" y2="280" stroke="yellow" stroke-width="2" />
<line x1="360" y1="280" x2="340" y2="280" stroke="yellow" stroke-width="2" />
<line x1="340" y1="280" x2="320" y2="280" stroke="yellow" stroke-width="2" />
<line x1="320" y1="280" x2="320" y2="300" stroke="yellow" stroke-width="2" />
<line x1="320" y1="300" x2="300" y2="300" stroke="yellow" stroke-width="2" />
<line x1="300" y1="300" x2="300" y2="280" stroke="yellow" stroke-width="2" />
<line x1="300" y1="280" x2="300" y2="260" stroke="yellow" stroke-width="2" />
<line x1="300" y1="260" x2="320" y2="260" stroke="yellow" stroke-width="2" />
<line x1="320" y1="260" x2="320" y2="240" stroke="yellow" stroke-width="2" />
<line x1="320" y1="240" x2="300" y2="240" stroke="yellow" stroke-width="2" />
<line x1="300" y1="240" x2="300" y2="220" stroke="yellow" stroke-width="2" />
<line x1="300" y1="220" x2="300" y2="200" stroke="yellow" stroke-width="2" />
<line x1="300" y1="200" x2="320" y2="200" stroke="yellow" stroke-width="2" />
<line x1="320" y1="200" x2="320" y2="220" stroke="yellow" stroke-width="2" />
<line x1="320" y1="220" x2="340" y2="220" stroke="yellow" stroke-width="2" />
<line x1="340" y1="220" x2="340" y2="200" stroke="yellow" stroke-width="2" />
<line x1="340" y1="200" x2="360" y2="200" stroke="yellow" stroke-width="2" />
<line x1="360" y1="200" x2="360" y2="220" stroke="yellow" stroke-width="2" />
<line x1="360" y1="220" x2="360" y2="240" stroke="yellow" stroke-width="2" />
<line x1="360" y1="240" x2="340" y2="240" stroke="yellow" stroke-width="2" />
<line x1="340" y1="240" x2="340" y2="260" stroke="yellow" stroke-width="2" />
<line x1="340" y1="260" x2="360" y2="260" stroke="yellow" stroke-width="2" />
<line x1="360" y1="260" x2="380" y2="260" stroke="yellow" stroke-width="2" />
<line x1="380" y1="260" x2="400" y2="260" stroke="yellow" stroke-width="2" />
<line x1="400" y1="260" x2="400" y2="240" stroke="yellow" stroke-width="2" />
<line x1="400" y1="240" x2="380" y2="240" stroke="yellow" stroke-width="2" />
<line x1="380" y1="240" x2="380" y2="220" stroke="yellow" stroke-width="2" />
<line x1="380" y1="220" x2="380" y2="200" stroke="yellow" stroke-width="2" />
<line x1="380" y1="200" x2="400" y2="200" stroke="yellow" stroke-width="2" />
<line x1="400" y1="200" x2="400" y2="220" stroke="yellow" stroke-width="2" />
<line x1="400" y1="220" x2="420" y2="220" stroke="yellow" stroke-width="2" />
<line x1="420" y1="220" x2="420" y2="200" stroke="yellow" stroke-width="2" />
<line x1="420" y1="200" x2="440" y2="200" stroke="yellow" stroke-width="2" />
<line x1="440" y1="200" x2="440" y2="220" stroke="yellow" stroke-width="2" />
<line x1="440" y1="220" x2="440" y2="240" stroke="yellow" stroke-width="2" />
<line x1="440" y1="240" x2="420" y2="240" stroke="yellow" stroke-width="2" />
<line x1="420" y1="240" x2="420" y2="260" stroke="yellow" stroke-width="2" />
<line x1="420" y1="260" x2="440" y2="260" stroke="yellow" stroke-width="2" />
<line x1="440" y1="260" x2="440" y2="280" stroke="yellow" stroke-width="2" />
<line x1="440" y1="280" x2="440" y2="300" stroke="yellow" stroke-width="2" />
<line x1="440" y1="300" x2="420" y2="300" stroke="yellow" stroke-width="2" />
<line x1="420" y1="300" x2="420" y2="280" stroke="yellow" stroke-width="2" />
<line x1="420" y1="280" x2="400" y2="280" stroke="yellow" stroke-width="2" />
<line x1="400" y1="280" x2="380" y2="280" stroke="yellow" stroke-width="2" />
<line x1="380" y1="280" x2="380" y2="300" stroke="yellow" stroke-width="2" />
<line x1="380" y1="300" x2="400" y2="300" stroke="yellow" stroke-width="2" />
<line x1="400" y1="300" x2="400" y2="320" stroke="yellow" stroke-width="2" />
<line x1="400" y1="320" x2="380" y2="320" stroke="yellow" stroke-width="2" />
<line x1="380" y1="320" x2="380" y2="340" stroke="yellow" stroke-width="2" />
<line x1="380" y1="340" x2="400" y2="340" stroke="yellow" stroke-width="2" />
<line x1="400" y1="340" x2="420" y2="340" stroke="yellow" stroke-width="2" />
<line x1="420" y1="340" x2="420" y2="320" stroke="yellow" stroke-width="2" />
<line x1="420" y1="320" x2="440" y2="320" stroke="yellow" stroke-width="2" />
<line x1="440" y1="320" x2="440" y2="340" stroke="yellow" stroke-width="2" />
<line x1="440" y1="340" x2="460" y2="340" stroke="yellow" stroke-width="2" />
<line x1="460" y1="340" x2="460" y2="320" stroke="yellow" stroke-width="2" />
<line x1="460" y1="320" x2="480" y2="320" stroke="yellow" stroke-width="2" />
<line x1="480" y1="320" x2="480" y2="340" stroke="yellow" stroke-width="2" />
<line x1="480" y1="340" x2="500" y2="340" stroke="yellow" stroke-width="2" />
<line x1="500" y1="340" x2="520" y2="340" stroke="yellow" stroke-width="2" />
<line x1="520" y1="340" x2="520" y2="320" stroke="yellow" stroke-width="2" />
<line x1="520" y1="320" x2="500" y2="320" stroke="yellow" stroke-width="2" />
<line x1="500" y1="320" x2="500" y2="300" stroke="yellow" stroke-width="2" />
<line x1="500" y1="300" x2="520" y2="300" stroke="yellow" stroke-width="2" />
<line x1="520" y1="300" x2="520" y2="280" stroke="yellow" stroke-width="2" />
<line x1="520" y1="280" x2="500" y2="280" stroke="yellow" stroke-width="2" />
<line x1="500" y1="280" x2="480" y2="280" stroke="yellow" stroke-width="2" />
<line x1="480" y1="280" x2="480" y2="300" stroke="yellow" stroke-width="2" />
<line x1="480" y1="300" x2="460" y2="300" stroke="yellow" stroke-width="2" />
<line x1="460" y1="300" x2="460" y2="280" stroke="yellow" stroke-width="2" />
<line x1="460" y1="280" x2="460" y2="260" stroke="yellow" stroke-width="2" />
<line x1="460" y1="260" x2="480" y2="260" stroke="yellow" stroke-width="2" />
<line x1="480" y1="260" x2="480" y2="240" stroke="yellow" stroke-width="2" />
<line x1="480" y1="240" x2="460" y2="240" stroke="yellow" stroke-width="2" />
<line x1="460" y1="240" x2="460" y2="220" stroke="yellow" stroke-width="2" />
<line x1="460" y1="220" x2="460" y2="200" stroke="yellow" stroke-width="2" />
<line x1="460" y1="200" x2="480" y2="200" stroke="yellow" stroke-width="2" />
<line x1="480" y1="200" x2="480" y2="220" stroke="yellow" stroke-width="2" />
<line x1="480" y1="220" x2="500" y2="220" stroke="yellow" stroke-width="2" />
<line x1="500" y1="220" x2="500" y2="200" stroke="yellow" stroke-width="2" />
<line x1="500" y1="200" x2="520" y2="200" stroke="yellow" stroke-width="2" />
<line x1="520" y1="200" x2="520" y2="220" stroke="yellow" stroke-width="2" />
<line x1="520" y1="220" x2="520" y2="240" stroke="yellow" stroke-width="2" />
<line x1="520" y1="240" x2="500" y2="240" stroke="yellow" stroke-width="2" />
<line x1="500" y1="240" x2="500" y2="260" stroke="yellow" stroke-width="2" />
<line x1="500" y1="260" x2="520" y2="260" stroke="yellow" stroke-width="2" />
<line x1="520" y1="260" x2="540" y2="260" stroke="yellow" stroke-width="2" />
<line x1="540" y1="260" x2="560" y2="260" stroke="yellow" stroke-width="2" />
<line x1="560" y1="260" x2="560" y2="240" stroke="yellow" stroke-width="2" />
<line x1="560" y1="240" x2="540" y2="240" stroke="yellow" stroke-width="2" />
<line x1="540" y1="240" x2="540" y2="220" stroke="yellow" stroke-width="2" />
<line x1="540" y1="220" x2="540" y2="200" stroke="yellow" stroke-width="2" />
<line x1="540" y1="200" x2="560" y2="200" stroke="yellow" stroke-width="2" />
<line x1="560" y1="200" x2="560" y2="220" stroke="yellow" stroke-width="2" />
<line x1="560" y1="220" x2="580" y2="220" stroke="yellow" stroke-width="2" />
<line x1="580" y1="220" x2="580" y2="200" stroke="yellow" stroke-width="2" />
<line x1="580" y1="200" x2="600" y2="200" stroke="yellow" stroke-width="2" />
<line x1="600" y1="200" x2="600" y2="220" stroke="yellow" stroke-width="2" />
<line x1="600" y1="220" x2="600" y2="240" stroke="yellow" stroke-width="2" />
<line x1="600" y1="240" x2="580" y2="240" stroke="yellow" stroke-width="2" />
<line x1="580" y1="240" x2="580" y2="260" stroke="yellow" stroke-width="2" />
<line x1="580" y1="260" x2="600" y2="260" stroke="yellow" stroke-width="2" />
<line x1="600" y1="260" x2="600" y2="280" stroke="yellow" stroke-width="2" />
<line x1="600" y1="280" x2="600" y2="300" stroke="yellow" stroke-width="2" />
<line x1="600" y1="300" x2="580" y2="300" stroke="yellow" stroke-width="2" />
<line x1="580" y1="300" x2="580" y2="280" stroke="yellow" stroke-width="2" />
<line x1="580" y1="280" x2="560" y2="280" stroke="yellow" stroke-width="2" />
<line x1="560" y1="280" x2="540" y2="280" stroke="yellow" stroke-width="2" />
<line x1="540" y1="280" x2="540" y2="300" stroke="yellow" stroke-width="2" />
<line x1="540" y1="300" x2="560" y2="300" stroke="yellow" stroke-width="2" />
<line x1="560" y1="300" x2="560" y2="320" stroke="yellow" stroke-width="2" />
<line x1="560" y1="320" x2="540" y2="320" stroke="yellow" stroke-width="2" />
<line x1="540" y1="320" x2="540" y2="340" stroke="yellow" stroke-width="2" />
<line x1="540" y1="340" x2="560" y2="340" stroke="yellow" stroke-width="2" />
<line x1="560" y1="340" x2="580" y2="340" stroke="yellow" stroke-width="2" />
<line x1="580" y1="340" x2="580" y2="320" stroke="yellow" stroke-width="2" />
<line x1="580" y1="320" x2="600" y2="320" stroke="yellow" stroke-width="2" />
<line x1="600" y1="320" x2="600" y2="340" stroke="yellow" stroke-width="2" />
<line x1="600" y1="340" x2="600" y2="360" stroke="yellow" stroke-width="2" />
<line x1="600" y1="360" x2="580" y2="360" stroke="yellow" stroke-width="2" />
<line x1="580" y1="360" x2="580" y2="380" stroke="yellow" stroke-width="2" />
<line x1="580" y1="380" x2="600" y2="380" stroke="yellow" stroke-width="2" />
<line x1="600" y1="380" x2="600" y2="400" stroke="yellow" stroke-width="2" />
<line x1="600" y1="400" x2="600" y2="420" stroke="yellow" stroke-width="2" />
<line x1="600" y1="420" x2="580" y2="420" stroke="yellow" stroke-width="2" />
<line x1="580" y1="420" x2="580" y2="400" stroke="yellow" stroke-width="2" />
<line x1="580" y1="400" x2="560" y2="400" stroke="yellow" stroke-width="2" />
<line x1="560" y1="400" x2="560" y2="420" stroke="yellow" stroke-width="2" />
<line x1="560" y1="420" x2="540" y2="420" stroke="yellow" stroke-width="2" />
<line x1="540" y1="420" x2="540" y2="400" stroke="yellow" stroke-width="2" />
<line x1="540" y1="400" x2="540" y2="380" stroke="yellow" stroke-width="2" />
<line x1="540" y1="380" x2="560" y2="380" stroke="yellow" stroke-width="2" />
<line x1="560" y1="380" x2="560" y2="360" stroke="yellow" stroke-width="2" />
<line x1="560" y1="360" x2="540" y2="360" stroke="yellow" stroke-width="2" />
<line x1="540" y1="360" x2="520" y2="360" stroke="yellow" stroke-width="2" />
<line x1="520" y1="360" x2="520" y2="380" stroke="yellow" stroke-width="2" />
<line x1="520" y1="380" x2="500" y2="380" stroke="yellow" stroke-width="2" />
<line x1="500" y1="380" x2="500" y2="360" stroke="yellow" stroke-width="2" />
<line x1="500" y1="360" x2="480" y2="360" stroke="yellow" stroke-width="2" />
<line x1="480" y1="360" x2="460" y2="360" stroke="yellow" stroke-width="2" />
<line x1="460" y1="360" x2="460" y2="380" stroke="yellow" stroke-width="2" />
<line x1="460" y1="380" x2="480" y2="380" stroke="yellow" stroke-width="2" />
<line x1="480" y1="380" x2="480" y2="400" stroke="yellow" stroke-width="2" />
<line x1="480" y1="400" x2="460" y2="400" stroke="yellow" stroke-width="2" />
<line x1="460" y1="400" x2="460" y2="420" stroke="yellow" stroke-width="2" />
<line x1="460" y1="420" x2="480" y2="420" stroke="yellow" stroke-width="2" />
<line x1="480" y1="420" x2="500" y2="420" stroke="yellow" stroke-width="2" />
<line x1="500" y1="420" x2="500" y2="400" stroke="yellow" stroke-width="2" />
<line x1="500" y1="400" x2="520" y2="400" stroke="yellow" stroke-width="2" />
<line x1="520" y1="400" x2="520" y2="420" stroke="yellow" stroke-width="2" />
<line x1="520" y1="420" x2="520" y2="440" stroke="yellow" stroke-width="2" />
<line x1="520" y1="440" x2="520" y2="460" stroke="yellow" stroke-width="2" />
<line x1="520" y1="460" x2="500" y2="460" stroke="yellow" stroke-width="2" />
<line x1="500" y1="460" x2="500" y2="440" stroke="yellow" stroke-width="2" />
<line x1="500" y1="440" x2="480" y2="440" stroke="yellow" stroke-width="2" />
<line x1="480" y1="440" x2="460" y2="440" stroke="yellow" stroke-width="2" />
<line x1="460" y1="440" x2="460" y2="460" stroke="yellow" stroke-width="2" />
<line x1="460" y1="460" x2="480" y2="460" stroke="yellow" stroke-width="2" />
<line x1="480" y1="460" x2="480" y2="480" stroke="yellow" stroke-width="2" />
<line x1="480" y1="480" x2="460" y2="480" stroke="yellow" stroke-width="2" />
<line x1="460" y1="480" x2="460" y2="500" stroke="yellow" stroke-width="2" />
<line x1="460" y1="500" x2="480" y2="500" stroke="yellow" stroke-width="2" />
<line x1="480" y1="500" x2="500" y2="500" stroke="yellow" stroke-width="2" />
<line x1="500" y1="500" x2="500" y2="480" stroke="yellow" stroke-width="2" />
<line x1="500" y1="480" x2="520" y2="480" stroke="yellow" stroke-width="2" />
<line x1="520" y1="480" x2="520" y2="500" stroke="yellow" stroke-width="2" />
<line x1="520" y1="500" x2="540" y2="500" stroke="yellow" stroke-width="2" />
<line x1="540" y1="500" x2="560" y2="500" stroke="yellow" stroke-width="2" />
<line x1="560" y1="500" x2="560" y2="480" stroke="yellow" stroke-width="2" />
<line x1="560" y1="480" x2="540" y2="480" stroke="yellow" stroke-width="2" />
<line x1="540" y1="480" x2="540" y2="460" stroke="yellow" stroke-width="2" />
<line x1="540" y1="460" x2="540" y2="440" stroke="yellow" stroke-width="2" />
<line x1="540" y1="440" x2="560" y2="440" stroke="yellow" stroke-width="2" />
<line x1="560" y1="440" x2="560" y2="460" stroke="yellow" stroke-width="2" />
<line x1="560" y1="460" x2="580" y2="460" stroke="yellow" stroke-width="2" />
<line x1="580" y1="460" x2="580" y2="440" stroke="yellow" stroke-width="2" />
<line x1="580" y1="440" x2="600" y2="440" stroke="yellow" stroke-width="2" />
<line x1="600" y1="440" x2="600" y2="460" stroke="yellow" stroke-width="2" />
<line x1="600" y1="460" x2="600" y2="480" stroke="yellow" stroke-width="2" />
<line x1="600" y1="480" x2="580" y2="480" stroke="yellow" stroke-width="2" />
<line x1="580" y1="480" x2="580" y2="500" stroke="yellow" stroke-width="2" />
<line x1="580" y1="500" x2="600" y2="500" stroke="yellow" stroke-width="2" />
</svg>
