<?xml version="1.0"?>
<!-- Generated by SVGo -->
<svg width="1500" height="1500"
     xmlns="http://www.w3.org/2000/svg" 
     xmlns:xlink="http://www.w3.org/1999/xlink">
<line x1="1300" y1="700" x2="1320" y2="700" stroke="yellow" stroke-width="2" />
<line x1="1320" y1="700" x2="1340" y2="700" stroke="yellow" stroke-width="2" />
<line x1="1340" y1="700" x2="1340" y2="680" stroke="yellow" stroke-width="2" />
<line x1="1340" y1="680" x2="1360" y2="680" stroke="yellow" stroke-width="2" />
<line x1="1360" y1="680" x2="1380" y2="680" stroke="yellow" stroke-width="2" />
<line x1="1380" y1="680" x2="1380" y2="660" stroke="yellow" stroke-width="2" />
<line x1="1380" y1="660" x2="1360" y2="660" stroke="yellow" stroke-width="2" />
<line x1="1360" y1="660" x2="1360" y2="680" stroke="yellow" stroke-width="2" />
<line x1="1360" y1="680" x2="1340" y2="680" stroke="yellow" stroke-width="2" />
<line x1="1340" y1="680" x2="1320" y2="680" stroke="yellow" stroke-width="2" />
<line x1="1320" y1="680" x2="1320" y2="700" stroke="yellow" stroke-width="2" />
<line x1="1320" y1="700" x2="1300" y2="700" stroke="yellow" stroke-width="2" />
<line x1="1300" y1="700" x2="1280" y2="700" stroke="yellow" stroke-width="2" />
<line x1="1280" y1="700" x2="1280" y2="720" stroke="yellow" stroke-width="2" />
<line x1="1280" y1="720" x2="1300" y2="720" stroke="yellow" stroke-width="2" />
<line x1="1300" y1="720" x2="1300" y2="700" stroke="yellow" stroke-width="2" />
<line x1="1300" y1="700" x2="1280" y2="700" stroke="yellow" stroke-width="2" />
<line x1="1280" y1="700" x2="1260" y2="700" stroke="yellow" stroke-width="2" />
<line x1="1260" y1="700" x2="1260" y2="720" stroke="yellow" stroke-width="2" />
<line x1="1260" y1="720" x2="1280" y2="720" stroke="yellow" stroke-width="2" />
<line x1="1280" y1="720" x2="1280" y2="700" stroke="yellow" stroke-width="2" />
<line x1="1280" y1="700" x2="1300" y2="700" stroke="yellow" stroke-width="2" />
<line x1="1300" y1="700" x2="1320" y2="700" stroke="yellow" stroke-width="2" />
<line x1="1320" y1="700" x2="1320" y2="680" stroke="yellow" stroke-width="2" />
<line x1="1320" y1="680" x2="1340" y2="680" stroke="yellow" stroke-width="2" />
<line x1="1340" y1="680" x2="1360" y2="680" stroke="yellow" stroke-width="2" />
<line x1="1360" y1="680" x2="1360" y2="660" stroke="yellow" stroke-width="2" />
<line x1="1360" y1="660" x2="1340" y2="660" stroke="yellow" stroke-width="2" />
<line x1="1340" y1="660" x2="1340" y2="680" stroke="yellow" stroke-width="2" />
<line x1="1340" y1="680" x2="1320" y2="680" stroke="yellow" stroke-width="2" />
<line x1="1320" y1="680" x2="1300" y2="680" stroke="yellow" stroke-width="2" />
<line x1="1300" y1="680" x2="1300" y2="700" stroke="yellow" stroke-width="2" />
<line x1="1300" y1="700" x2="1280" y2="700" stroke="yellow" stroke-width="2" />
<line x1="1280" y1="700" x2="1260" y2="700" stroke="yellow" stroke-width="2" />
<line x1="1260" y1="700" x2="1260" y2="720" stroke="yellow" stroke-width="2" />
<line x1="1260" y1="720" x2="1280" y2="720" stroke="yellow" stroke-width="2" />
<line x1="1280" y1="720" x2="1280" y2="700" stroke="yellow" stroke-width="2" />
<line x1="1280" y1="700" x2="1260" y2="700" stroke="yellow" stroke-width="2" />
<line x1="1260" y1="700" x2="1240" y2="700" stroke="yellow" stroke-width="2" />
<line x1="1240" y1="700" x2="1240" y2="720" stroke="yellow" stroke-width="2" />
<line x1="1240" y1="720" x2="1260" y2="720" stroke="yellow" stroke-width="2" />
<line x1="1260" y1="720" x2="1260" y2="700" stroke="yellow" stroke-width="2" />
<line x1="1260" y1="700" x2="1240" y2="699" stroke="yellow" stroke-width="2" />
<line x1="1240" y1="699" x2="1220" y2="699" stroke="yellow" stroke-width="2" />
<line x1="1220" y1="699" x2="1220" y2="719" stroke="yellow" stroke-width="2" />
<line x1="1220" y1="719" x2="1200" y2="719" stroke="yellow" stroke-width="2" />
<line x1="1200" y1="719" x2="1180" y2="719" stroke="yellow" stroke-width="2" />
<line x1="1180" y1="719" x2="1180" y2="739" stroke="yellow" stroke-width="2" />
<line x1="1180" y1="739" x2="1200" y2="739" stroke="yellow" stroke-width="2" />
<line x1="1200" y1="739" x2="1200" y2="719" stroke="yellow" stroke-width="2" />
<line x1="1200" y1="719" x2="1180" y2="719" stroke="yellow" stroke-width="2" />
<line x1="1180" y1="719" x2="1160" y2="719" stroke="yellow" stroke-width="2" />
<line x1="1160" y1="719" x2="1160" y2="739" stroke="yellow" stroke-width="2" />
<line x1="1160" y1="739" x2="1180" y2="739" stroke="yellow" stroke-width="2" />
<line x1="1180" y1="739" x2="1180" y2="719" stroke="yellow" stroke-width="2" />
<line x1="1180" y1="719" x2="1200" y2="719" stroke="yellow" stroke-width="2" />
<line x1="1200" y1="719" x2="1220" y2="719" stroke="yellow" stroke-width="2" />
<line x1="1220" y1="719" x2="1220" y2="699" stroke="yellow" stroke-width="2" />
<line x1="1220" y1="699" x2="1240" y2="699" stroke="yellow" stroke-width="2" />
<line x1="1240" y1="699" x2="1260" y2="699" stroke="yellow" stroke-width="2" />
<line x1="1260" y1="699" x2="1260" y2="679" stroke="yellow" stroke-width="2" />
<line x1="1260" y1="679" x2="1240" y2="679" stroke="yellow" stroke-width="2" />
<line x1="1240" y1="679" x2="1240" y2="699" stroke="yellow" stroke-width="2" />
<line x1="1240" y1="699" x2="1220" y2="699" stroke="yellow" stroke-width="2" />
<line x1="1220" y1="699" x2="1200" y2="699" stroke="yellow" stroke-width="2" />
<line x1="1200" y1="699" x2="1200" y2="719" stroke="yellow" stroke-width="2" />
<line x1="1200" y1="719" x2="1180" y2="719" stroke="yellow" stroke-width="2" />
<line x1="1180" y1="719" x2="1160" y2="719" stroke="yellow" stroke-width="2" />
<line x1="1160" y1="719" x2="1160" y2="739" stroke="yellow" stroke-width="2" />
<line x1="1160" y1="739" x2="1180" y2="739" stroke="yellow" stroke-width="2" />
<line x1="1180" y1="739" x2="1180" y2="719" stroke="yellow" stroke-width="2" />
<line x1="1180" y1="719" x2="1160" y2="719" stroke="yellow" stroke-width="2" />
<line x1="1160" y1="719" x2="1140" y2="719" stroke="yellow" stroke-width="2" />
<line x1="1140" y1="719" x2="1140" y2="739" stroke="yellow" stroke-width="2" />
<line x1="1140" y1="739" x2="1160" y2="739" stroke="yellow" stroke-width="2" />
<line x1="1160" y1="739" x2="1160" y2="719" stroke="yellow" stroke-width="2" />
<line x1="1160" y1="719" x2="1180" y2="719" stroke="yellow" stroke-width="2" />
<line x1="1180" y1="719" x2="1200" y2="719" stroke="yellow" stroke-width="2" />
<line x1="1200" y1="719" x2="1200" y2="699" stroke="yellow" stroke-width="2" />
<line x1="1200" y1="699" x2="1220" y2="699" stroke="yellow" stroke-width="2" />
<line x1="1220" y1="699" x2="1240" y2="699" stroke="yellow" stroke-width="2" />
<line x1="1240" y1="699" x2="1240" y2="679" stroke="yellow" stroke-width="2" />
<line x1="1240" y1="679" x2="1220" y2="679" stroke="yellow" stroke-width="2" />
<line x1="1220" y1="679" x2="1220" y2="699" stroke="yellow" stroke-width="2" />
<line x1="1220" y1="699" x2="1200" y2="699" stroke="yellow" stroke-width="2" />
<line x1="1200" y1="699" x2="1180" y2="699" stroke="yellow" stroke-width="2" />
<line x1="1180" y1="699" x2="1180" y2="719" stroke="yellow" stroke-width="2" />
<line x1="1180" y1="719" x2="1160" y2="719" stroke="yellow" stroke-width="2" />
<line x1="1160" y1="719" x2="1140" y2="719" stroke="yellow" stroke-width="2" />
<line x1="1140" y1="719" x2="1140" y2="739" stroke="yellow" stroke-width="2" />
<line x1="1140" y1="739" x2="1160" y2="739" stroke="yellow" stroke-width="2" />
<line x1="1160" y1="739" x2="1160" y2="719" stroke="yellow" stroke-width="2" />
<line x1="1160" y1="719" x2="1140" y2="719" stroke="yellow" stroke-width="2" />
<line x1="1140" y1="719" x2="1120" y2="719" stroke="yellow" stroke-width="2" />
<line x1="1120" y1="719" x2="1120" y2="739" stroke="yellow" stroke-width="2" />
<line x1="1120" y1="739" x2="1140" y2="739" stroke="yellow" stroke-width="2" />
<line x1="1140" y1="739" x2="1140" y2="719" stroke="yellow" stroke-width="2" />
<line x1="1140" y1="719" x2="1120" y2="719" stroke="yellow" stroke-width="2" />
<line x1="1120" y1="719" x2="1100" y2="719" stroke="yellow" stroke-width="2" />
<line x1="1100" y1="719" x2="1100" y2="739" stroke="yellow" stroke-width="2" />
<line x1="1100" y1="739" x2="1080" y2="739" stroke="yellow" stroke-width="2" />
<line x1="1080" y1="739" x2="1060" y2="739" stroke="yellow" stroke-width="2" />
<line x1="1060" y1="739" x2="1060" y2="759" stroke="yellow" stroke-width="2" />
<line x1="1060" y1="759" x2="1080" y2="759" stroke="yellow" stroke-width="2" />
<line x1="1080" y1="759" x2="1080" y2="739" stroke="yellow" stroke-width="2" />
<line x1="1080" y1="739" x2="1060" y2="739" stroke="yellow" stroke-width="2" />
<line x1="1060" y1="739" x2="1040" y2="739" stroke="yellow" stroke-width="2" />
<line x1="1040" y1="739" x2="1040" y2="759" stroke="yellow" stroke-width="2" />
<line x1="1040" y1="759" x2="1060" y2="759" stroke="yellow" stroke-width="2" />
<line x1="1060" y1="759" x2="1060" y2="739" stroke="yellow" stroke-width="2" />
<line x1="1060" y1="739" x2="1040" y2="739" stroke="yellow" stroke-width="2" />
<line x1="1040" y1="739" x2="1020" y2="739" stroke="yellow" stroke-width="2" />
<line x1="1020" y1="739" x2="1020" y2="759" stroke="yellow" stroke-width="2" />
<line x1="1020" y1="759" x2="1000" y2="759" stroke="yellow" stroke-width="2" />
<line x1="1000" y1="759" x2="980" y2="759" stroke="yellow" stroke-width="2" />
<line x1="980" y1="759" x2="980" y2="779" stroke="yellow" stroke-width="2" />
<line x1="980" y1="779" x2="1000" y2="779" stroke="yellow" stroke-width="2" />
<line x1="1000" y1="779" x2="1000" y2="759" stroke="yellow" stroke-width="2" />
<line x1="1000" y1="759" x2="1020" y2="759" stroke="yellow" stroke-width="2" />
<line x1="1020" y1="759" x2="1040" y2="759" stroke="yellow" stroke-width="2" />
<line x1="1040" y1="759" x2="1040" y2="739" stroke="yellow" stroke-width="2" />
<line x1="1040" y1="739" x2="1060" y2="739" stroke="yellow" stroke-width="2" />
<line x1="1060" y1="739" x2="1080" y2="739" stroke="yellow" stroke-width="2" />
<line x1="1080" y1="739" x2="1080" y2="719" stroke="yellow" stroke-width="2" />
<line x1="1080" y1="719" x2="1060" y2="719" stroke="yellow" stroke-width="2" />
<line x1="1060" y1="719" x2="1060" y2="739" stroke="yellow" stroke-width="2" />
<line x1="1060" y1="739" x2="1080" y2="739" stroke="yellow" stroke-width="2" />
<line x1="1080" y1="739" x2="1100" y2="739" stroke="yellow" stroke-width="2" />
<line x1="1100" y1="739" x2="1100" y2="719" stroke="yellow" stroke-width="2" />
<line x1="1100" y1="719" x2="1080" y2="719" stroke="yellow" stroke-width="2" />
<line x1="1080" y1="719" x2="1080" y2="739" stroke="yellow" stroke-width="2" />
<line x1="1080" y1="739" x2="1100" y2="739" stroke="yellow" stroke-width="2" />
<line x1="1100" y1="739" x2="1120" y2="739" stroke="yellow" stroke-width="2" />
<line x1="1120" y1="739" x2="1120" y2="719" stroke="yellow" stroke-width="2" />
<line x1="1120" y1="719" x2="1140" y2="719" stroke="yellow" stroke-width="2" />
<line x1="1140" y1="719" x2="1160" y2="719" stroke="yellow" stroke-width="2" />
<line x1="1160" y1="719" x2="1160" y2="699" stroke="yellow" stroke-width="2" />
<line x1="1160" y1="699" x2="1140" y2="699" stroke="yellow" stroke-width="2" />
<line x1="1140" y1="699" x2="1140" y2="719" stroke="yellow" stroke-width="2" />
<line x1="1140" y1="719" x2="1160" y2="719" stroke="yellow" stroke-width="2" />
<line x1="1160" y1="719" x2="1180" y2="719" stroke="yellow" stroke-width="2" />
<line x1="1180" y1="719" x2="1180" y2="699" stroke="yellow" stroke-width="2" />
<line x1="1180" y1="699" x2="1160" y2="699" stroke="yellow" stroke-width="2" />
<line x1="1160" y1="699" x2="1160" y2="719" stroke="yellow" stroke-width="2" />
<line x1="1160" y1="719" x2="1140" y2="719" stroke="yellow" stroke-width="2" />
<line x1="1140" y1="719" x2="1120" y2="719" stroke="yellow" stroke-width="2" />
<line x1="1120" y1="719" x2="1120" y2="739" stroke="yellow" stroke-width="2" />
<line x1="1120" y1="739" x2="1100" y2="739" stroke="yellow" stroke-width="2" />
<line x1="1100" y1="739" x2="1080" y2="739" stroke="yellow" stroke-width="2" />
<line x1="1080" y1="739" x2="1080" y2="759" stroke="yellow" stroke-width="2" />
<line x1="1080" y1="759" x2="1100" y2="759" stroke="yellow" stroke-width="2" />
<line x1="1100" y1="759" x2="1100" y2="739" stroke="yellow" stroke-width="2" />
<line x1="1100" y1="739" x2="1120" y2="739" stroke="yellow" stroke-width="2" />
<line x1="1120" y1="739" x2="1140" y2="739" stroke="yellow" stroke-width="2" />
<line x1="1140" y1="739" x2="1140" y2="719" stroke="yellow" stroke-width="2" />
<line x1="1140" y1="719" x2="1160" y2="719" stroke="yellow" stroke-width="2" />
<line x1="1160" y1="719" x2="1180" y2="719" stroke="yellow" stroke-width="2" />
<line x1="1180" y1="719" x2="1180" y2="699" stroke="yellow" stroke-width="2" />
<line x1="1180" y1="699" x2="1160" y2="699" stroke="yellow" stroke-width="2" />
<line x1="1160" y1="699" x2="1160" y2="719" stroke="yellow" stroke-width="2" />
<line x1="1160" y1="719" x2="1180" y2="719" stroke="yellow" stroke-width="2" />
<line x1="1180" y1="719" x2="1200" y2="719" stroke="yellow" stroke-width="2" />
<line x1="1200" y1="719" x2="1200" y2="699" stroke="yellow" stroke-width="2" />
<line x1="1200" y1="699" x2="1180" y2="699" stroke="yellow" stroke-width="2" />
<line x1="1180" y1="699" x2="1180" y2="719" stroke="yellow" stroke-width="2" />
<line x1="1180" y1="719" x2="1160" y2="719" stroke="yellow" stroke-width="2" />
<line x1="1160" y1="719" x2="1140" y2="719" stroke="yellow" stroke-width="2" />
<line x1="1140" y1="719" x2="1139" y2="739" stroke="yellow" stroke-width="2" />
<line x1="1139" y1="739" x2="1119" y2="739" stroke="yellow" stroke-width="2" />
<line x1="1119" y1="739" x2="1099" y2="739" stroke="yellow" stroke-width="2" />
<line x1="1099" y1="739" x2="1099" y2="759" stroke="yellow" stroke-width="2" />
<line x1="1099" y1="759" x2="1119" y2="759" stroke="yellow" stroke-width="2" />
<line x1="1119" y1="759" x2="1119" y2="739" stroke="yellow" stroke-width="2" />
<line x1="1119" y1="739" x2="1139" y2="739" stroke="yellow" stroke-width="2" />
<line x1="1139" y1="739" x2="1159" y2="739" stroke="yellow" stroke-width="2" />
<line x1="1159" y1="739" x2="1159" y2="719" stroke="yellow" stroke-width="2" />
<line x1="1159" y1="719" x2="1179" y2="719" stroke="yellow" stroke-width="2" />
<line x1="1179" y1="719" x2="1199" y2="719" stroke="yellow" stroke-width="2" />
<line x1="1199" y1="719" x2="1199" y2="699" stroke="yellow" stroke-width="2" />
<line x1="1199" y1="699" x2="1179" y2="699" stroke="yellow" stroke-width="2" />
<line x1="1179" y1="699" x2="1179" y2="719" stroke="yellow" stroke-width="2" />
<line x1="1179" y1="719" x2="1199" y2="719" stroke="yellow" stroke-width="2" />
<line x1="1199" y1="719" x2="1219" y2="719" stroke="yellow" stroke-width="2" />
<line x1="1219" y1="719" x2="1219" y2="699" stroke="yellow" stroke-width="2" />
<line x1="1219" y1="699" x2="1199" y2="699" stroke="yellow" stroke-width="2" />
<line x1="1199" y1="699" x2="1199" y2="719" stroke="yellow" stroke-width="2" />
<line x1="1199" y1="719" x2="1219" y2="719" stroke="yellow" stroke-width="2" />
<line x1="1219" y1="719" x2="1239" y2="720" stroke="yellow" stroke-width="2" />
<line x1="1239" y1="720" x2="1239" y2="700" stroke="yellow" stroke-width="2" />
<line x1="1239" y1="700" x2="1259" y2="700" stroke="yellow" stroke-width="2" />
<line x1="1259" y1="700" x2="1279" y2="700" stroke="yellow" stroke-width="2" />
<line x1="1279" y1="700" x2="1279" y2="680" stroke="yellow" stroke-width="2" />
<line x1="1279" y1="680" x2="1259" y2="680" stroke="yellow" stroke-width="2" />
<line x1="1259" y1="680" x2="1259" y2="700" stroke="yellow" stroke-width="2" />
<line x1="1259" y1="700" x2="1279" y2="700" stroke="yellow" stroke-width="2" />
<line x1="1279" y1="700" x2="1299" y2="700" stroke="yellow" stroke-width="2" />
<line x1="1299" y1="700" x2="1299" y2="680" stroke="yellow" stroke-width="2" />
<line x1="1299" y1="680" x2="1279" y2="680" stroke="yellow" stroke-width="2" />
<line x1="1279" y1="680" x2="1279" y2="700" stroke="yellow" stroke-width="2" />
<line x1="1279" y1="700" x2="1259" y2="700" stroke="yellow" stroke-width="2" />
<line x1="1259" y1="700" x2="1239" y2="700" stroke="yellow" stroke-width="2" />
<line x1="1239" y1="700" x2="1239" y2="720" stroke="yellow" stroke-width="2" />
<line x1="1239" y1="720" x2="1219" y2="720" stroke="yellow" stroke-width="2" />
<line x1="1219" y1="720" x2="1199" y2="720" stroke="yellow" stroke-width="2" />
<line x1="1199" y1="720" x2="1199" y2="740" stroke="yellow" stroke-width="2" />
<line x1="1199" y1="740" x2="1219" y2="740" stroke="yellow" stroke-width="2" />
<line x1="1219" y1="740" x2="1219" y2="720" stroke="yellow" stroke-width="2" />
<line x1="1219" y1="720" x2="1239" y2="720" stroke="yellow" stroke-width="2" />
<line x1="1239" y1="720" x2="1259" y2="720" stroke="yellow" stroke-width="2" />
<line x1="1259" y1="720" x2="1259" y2="700" stroke="yellow" stroke-width="2" />
<line x1="1259" y1="700" x2="1279" y2="700" stroke="yellow" stroke-width="2" />
<line x1="1279" y1="700" x2="1299" y2="700" stroke="yellow" stroke-width="2" />
<line x1="1299" y1="700" x2="1299" y2="680" stroke="yellow" stroke-width="2" />
<line x1="1299" y1="680" x2="1279" y2="680" stroke="yellow" stroke-width="2" />
<line x1="1279" y1="680" x2="1279" y2="700" stroke="yellow" stroke-width="2" />
<line x1="1279" y1="700" x2="1299" y2="700" stroke="yellow" stroke-width="2" />
<line x1="1299" y1="700" x2="1319" y2="700" stroke="yellow" stroke-width="2" />
<line x1="1319" y1="700" x2="1319" y2="680" stroke="yellow" stroke-width="2" />
<line x1="1319" y1="680" x2="1299" y2="680" stroke="yellow" stroke-width="2" />
<line x1="1299" y1="680" x2="1299" y2="700" stroke="yellow" stroke-width="2" />
<line x1="1299" y1="700" x2="1279" y2="700" stroke="yellow" stroke-width="2" />
<line x1="1279" y1="700" x2="1259" y2="700" stroke="yellow" stroke-width="2" />
<line x1="1259" y1="700" x2="1259" y2="720" stroke="yellow" stroke-width="2" />
<line x1="1259" y1="720" x2="1239" y2="720" stroke="yellow" stroke-width="2" />
<line x1="1239" y1="720" x2="1219" y2="720" stroke="yellow" stroke-width="2" />
<line x1="1219" y1="720" x2="1219" y2="740" stroke="yellow" stroke-width="2" />
<line x1="1219" y1="740" x2="1239" y2="740" stroke="yellow" stroke-width="2" />
<line x1="1239" y1="740" x2="1239" y2="720" stroke="yellow" stroke-width="2" />
<line x1="1239" y1="720" x2="1259" y2="720" stroke="yellow" stroke-width="2" />
<line x1="1259" y1="720" x2="1279" y2="720" stroke="yellow" stroke-width="2" />
<line x1="1279" y1="720" x2="1279" y2="700" stroke="yellow" stroke-width="2" />
<line x1="1279" y1="700" x2="1299" y2="700" stroke="yellow" stroke-width="2" />
<line x1="1299" y1="700" x2="1319" y2="700" stroke="yellow" stroke-width="2" />
<line x1="1319" y1="700" x2="1319" y2="680" stroke="yellow" stroke-width="2" />
<line x1="1319" y1="680" x2="1299" y2="680" stroke="yellow" stroke-width="2" />
<line x1="1299" y1="680" x2="1299" y2="700" stroke="yellow" stroke-width="2" />
<line x1="1299" y1="700" x2="1319" y2="700" stroke="yellow" stroke-width="2" />
<line x1="1319" y1="700" x2="1339" y2="700" stroke="yellow" stroke-width="2" />
<line x1="1339" y1="700" x2="1339" y2="680" stroke="yellow" stroke-width="2" />
<line x1="1339" y1="680" x2="1319" y2="680" stroke="yellow" stroke-width="2" />
<line x1="1319" y1="680" x2="1319" y2="700" stroke="yellow" stroke-width="2" />
<line x1="1319" y1="700" x2="1339" y2="700" stroke="yellow" stroke-width="2" />
<line x1="1339" y1="700" x2="1359" y2="700" stroke="yellow" stroke-width="2" />
<line x1="1359" y1="700" x2="1359" y2="680" stroke="yellow" stroke-width="2" />
<line x1="1359" y1="680" x2="1379" y2="680" stroke="yellow" stroke-width="2" />
<line x1="1379" y1="680" x2="1399" y2="680" stroke="yellow" stroke-width="2" />
<line x1="1399" y1="680" x2="1399" y2="660" stroke="yellow" stroke-width="2" />
<line x1="1399" y1="660" x2="1379" y2="660" stroke="yellow" stroke-width="2" />
<line x1="1379" y1="660" x2="1379" y2="680" stroke="yellow" stroke-width="2" />
<line x1="1379" y1="680" x2="1399" y2="680" stroke="yellow" stroke-width="2" />
<line x1="1399" y1="680" x2="1419" y2="680" stroke="yellow" stroke-width="2" />
<line x1="1419" y1="680" x2="1419" y2="660" stroke="yellow" stroke-width="2" />
<line x1="1419" y1="660" x2="1399" y2="660" stroke="yellow" stroke-width="2" />
<line x1="1399" y1="660" x2="1399" y2="680" stroke="yellow" stroke-width="2" />
<line x1="1399" y1="680" x2="1419" y2="680" stroke="yellow" stroke-width="2" />
<line x1="1419" y1="680" x2="1439" y2="680" stroke="yellow" stroke-width="2" />
<line x1="1439" y1="680" x2="1439" y2="660" stroke="yellow" stroke-width="2" />
<line x1="1439" y1="660" x2="1459" y2="660" stroke="yellow" stroke-width="2" />
<line x1="1459" y1="660" x2="1479" y2="660" stroke="yellow" stroke-width="2" />
<line x1="1479" y1="660" x2="1480" y2="640" stroke="yellow" stroke-width="2" />
<line x1="1480" y1="640" x2="1460" y2="640" stroke="yellow" stroke-width="2" />
<line x1="1460" y1="640" x2="1460" y2="660" stroke="yellow" stroke-width="2" />
<line x1="1460" y1="660" x2="1440" y2="660" stroke="yellow" stroke-width="2" />
<line x1="1440" y1="660" x2="1420" y2="660" stroke="yellow" stroke-width="2" />
<line x1="1420" y1="660" x2="1420" y2="680" stroke="yellow" stroke-width="2" />
<line x1="1420" y1="680" x2="1400" y2="680" stroke="yellow" stroke-width="2" />
<line x1="1400" y1="680" x2="1380" y2="679" stroke="yellow" stroke-width="2" />
<line x1="1380" y1="679" x2="1379" y2="699" stroke="yellow" stroke-width="2" />
<line x1="1379" y1="699" x2="1399" y2="699" stroke="yellow" stroke-width="2" />
<line x1="1399" y1="699" x2="1399" y2="679" stroke="yellow" stroke-width="2" />
<line x1="1399" y1="679" x2="1379" y2="679" stroke="yellow" stroke-width="2" />
<line x1="1379" y1="679" x2="1359" y2="679" stroke="yellow" stroke-width="2" />
<line x1="1359" y1="679" x2="1359" y2="699" stroke="yellow" stroke-width="2" />
<line x1="1359" y1="699" x2="1379" y2="699" stroke="yellow" stroke-width="2" />
<line x1="1379" y1="699" x2="1379" y2="679" stroke="yellow" stroke-width="2" />
<line x1="1379" y1="679" x2="1359" y2="679" stroke="yellow" stroke-width="2" />
<line x1="1359" y1="679" x2="1339" y2="679" stroke="yellow" stroke-width="2" />
<line x1="1339" y1="679" x2="1339" y2="699" stroke="yellow" stroke-width="2" />
<line x1="1339" y1="699" x2="1319" y2="699" stroke="yellow" stroke-width="2" />
<line x1="1319" y1="699" x2="1299" y2="699" stroke="yellow" stroke-width="2" />
<line x1="1299" y1="699" x2="1299" y2="719" stroke="yellow" stroke-width="2" />
<line x1="1299" y1="719" x2="1319" y2="719" stroke="yellow" stroke-width="2" />
<line x1="1319" y1="719" x2="1319" y2="699" stroke="yellow" stroke-width="2" />
<line x1="1319" y1="699" x2="1299" y2="699" stroke="yellow" stroke-width="2" />
<line x1="1299" y1="699" x2="1279" y2="699" stroke="yellow" stroke-width="2" />
<line x1="1279" y1="699" x2="1279" y2="719" stroke="yellow" stroke-width="2" />
<line x1="1279" y1="719" x2="1299" y2="719" stroke="yellow" stroke-width="2" />
<line x1="1299" y1="719" x2="1299" y2="699" stroke="yellow" stroke-width="2" />
<line x1="1299" y1="699" x2="1279" y2="699" stroke="yellow" stroke-width="2" />
<line x1="1279" y1="699" x2="1259" y2="699" stroke="yellow" stroke-width="2" />
<line x1="1259" y1="699" x2="1259" y2="719" stroke="yellow" stroke-width="2" />
<line x1="1259" y1="719" x2="1239" y2="719" stroke="yellow" stroke-width="2" />
<line x1="1239" y1="719" x2="1219" y2="719" stroke="yellow" stroke-width="2" />
<line x1="1219" y1="719" x2="1219" y2="739" stroke="yellow" stroke-width="2" />
<line x1="1219" y1="739" x2="1239" y2="739" stroke="yellow" stroke-width="2" />
<line x1="1239" y1="739" x2="1239" y2="719" stroke="yellow" stroke-width="2" />
<line x1="1239" y1="719" x2="1259" y2="719" stroke="yellow" stroke-width="2" />
<line x1="1259" y1="719" x2="1279" y2="720" stroke="yellow" stroke-width="2" />
<line x1="1279" y1="720" x2="1279" y2="700" stroke="yellow" stroke-width="2" />
<line x1="1279" y1="700" x2="1299" y2="700" stroke="yellow" stroke-width="2" />
<line x1="1299" y1="700" x2="1319" y2="700" stroke="yellow" stroke-width="2" />
<line x1="1319" y1="700" x2="1319" y2="680" stroke="yellow" stroke-width="2" />
<line x1="1319" y1="680" x2="1299" y2="680" stroke="yellow" stroke-width="2" />
<line x1="1299" y1="680" x2="1299" y2="700" stroke="yellow" stroke-width="2" />
<line x1="1299" y1="700" x2="1319" y2="700" stroke="yellow" stroke-width="2" />
<line x1="1319" y1="700" x2="1339" y2="700" stroke="yellow" stroke-width="2" />
<line x1="1339" y1="700" x2="1339" y2="680" stroke="yellow" stroke-width="2" />
<line x1="1339" y1="680" x2="1319" y2="680" stroke="yellow" stroke-width="2" />
<line x1="1319" y1="680" x2="1319" y2="700" stroke="yellow" stroke-width="2" />
<line x1="1319" y1="700" x2="1299" y2="700" stroke="yellow" stroke-width="2" />
<line x1="1299" y1="700" x2="1279" y2="700" stroke="yellow" stroke-width="2" />
<line x1="1279" y1="700" x2="1279" y2="720" stroke="yellow" stroke-width="2" />
<line x1="1279" y1="720" x2="1259" y2="720" stroke="yellow" stroke-width="2" />
<line x1="1259" y1="720" x2="1239" y2="720" stroke="yellow" stroke-width="2" />
<line x1="1239" y1="720" x2="1239" y2="740" stroke="yellow" stroke-width="2" />
<line x1="1239" y1="740" x2="1259" y2="740" stroke="yellow" stroke-width="2" />
<line x1="1259" y1="740" x2="1259" y2="720" stroke="yellow" stroke-width="2" />
<line x1="1259" y1="720" x2="1279" y2="720" stroke="yellow" stroke-width="2" />
<line x1="1279" y1="720" x2="1299" y2="720" stroke="yellow" stroke-width="2" />
<line x1="1299" y1="720" x2="1299" y2="700" stroke="yellow" stroke-width="2" />
<line x1="1299" y1="700" x2="1319" y2="700" stroke="yellow" stroke-width="2" />
<line x1="1319" y1="700" x2="1339" y2="700" stroke="yellow" stroke-width="2" />
<line x1="1339" y1="700" x2="1339" y2="680" stroke="yellow" stroke-width="2" />
<line x1="1339" y1="680" x2="1319" y2="680" stroke="yellow" stroke-width="2" />
<line x1="1319" y1="680" x2="1319" y2="700" stroke="yellow" stroke-width="2" />
<line x1="1319" y1="700" x2="1339" y2="700" stroke="yellow" stroke-width="2" />
<line x1="1339" y1="700" x2="1359" y2="700" stroke="yellow" stroke-width="2" />
<line x1="1359" y1="700" x2="1359" y2="680" stroke="yellow" stroke-width="2" />
<line x1="1359" y1="680" x2="1339" y2="680" stroke="yellow" stroke-width="2" />
<line x1="1339" y1="680" x2="1339" y2="700" stroke="yellow" stroke-width="2" />
<line x1="1339" y1="700" x2="1359" y2="700" stroke="yellow" stroke-width="2" />
<line x1="1359" y1="700" x2="1379" y2="700" stroke="yellow" stroke-width="2" />
<line x1="1379" y1="700" x2="1379" y2="680" stroke="yellow" stroke-width="2" />
<line x1="1379" y1="680" x2="1399" y2="680" stroke="yellow" stroke-width="2" />
<line x1="1399" y1="680" x2="1419" y2="680" stroke="yellow" stroke-width="2" />
<line x1="1419" y1="680" x2="1419" y2="660" stroke="yellow" stroke-width="2" />
<line x1="1419" y1="660" x2="1399" y2="660" stroke="yellow" stroke-width="2" />
<line x1="1399" y1="660" x2="1399" y2="680" stroke="yellow" stroke-width="2" />
<line x1="1399" y1="680" x2="1419" y2="680" stroke="yellow" stroke-width="2" />
<line x1="1419" y1="680" x2="1439" y2="680" stroke="yellow" stroke-width="2" />
<line x1="1439" y1="680" x2="1439" y2="660" stroke="yellow" stroke-width="2" />
<line x1="1439" y1="660" x2="1419" y2="660" stroke="yellow" stroke-width="2" />
<line x1="1419" y1="660" x2="1419" y2="680" stroke="yellow" stroke-width="2" />
<line x1="1419" y1="680" x2="1439" y2="680" stroke="yellow" stroke-width="2" />
<line x1="1439" y1="680" x2="1459" y2="680" stroke="yellow" stroke-width="2" />
<line x1="1459" y1="680" x2="1459" y2="660" stroke="yellow" stroke-width="2" />
<line x1="1459" y1="660" x2="1479" y2="660" stroke="yellow" stroke-width="2" />
<line x1="1479" y1="660" x2="1499" y2="660" stroke="yellow" stroke-width="2" />
<line x1="1499" y1="660" x2="1499" y2="640" stroke="yellow" stroke-width="2" />
<line x1="1499" y1="640" x2="1479" y2="640" stroke="yellow" stroke-width="2" />
<line x1="1479" y1="640" x2="1479" y2="660" stroke="yellow" stroke-width="2" />
<line x1="1479" y1="660" x2="1459" y2="660" stroke="yellow" stroke-width="2" />
<line x1="1459" y1="660" x2="1439" y2="660" stroke="yellow" stroke-width="2" />
<line x1="1439" y1="660" x2="1439" y2="680" stroke="yellow" stroke-width="2" />
<line x1="1439" y1="680" x2="1419" y2="680" stroke="yellow" stroke-width="2" />
<line x1="1419" y1="680" x2="1399" y2="680" stroke="yellow" stroke-width="2" />
<line x1="1399" y1="680" x2="1399" y2="700" stroke="yellow" stroke-width="2" />
<line x1="1399" y1="700" x2="1419" y2="700" stroke="yellow" stroke-width="2" />
<line x1="1419" y1="700" x2="1419" y2="680" stroke="yellow" stroke-width="2" />
<line x1="1419" y1="680" x2="1399" y2="680" stroke="yellow" stroke-width="2" />
<line x1="1399" y1="680" x2="1379" y2="680" stroke="yellow" stroke-width="2" />
<line x1="1379" y1="680" x2="1379" y2="700" stroke="yellow" stroke-width="2" />
<line x1="1379" y1="700" x2="1399" y2="700" stroke="yellow" stroke-width="2" />
<line x1="1399" y1="700" x2="1399" y2="680" stroke="yellow" stroke-width="2" />
<line x1="1399" y1="680" x2="1379" y2="680" stroke="yellow" stroke-width="2" />
<line x1="1379" y1="680" x2="1359" y2="680" stroke="yellow" stroke-width="2" />
<line x1="1359" y1="680" x2="1359" y2="700" stroke="yellow" stroke-width="2" />
<line x1="1359" y1="700" x2="1339" y2="700" stroke="yellow" stroke-width="2" />
<line x1="1339" y1="700" x2="1319" y2="700" stroke="yellow" stroke-width="2" />
<line x1="1319" y1="700" x2="1319" y2="720" stroke="yellow" stroke-width="2" />
<line x1="1319" y1="720" x2="1339" y2="720" stroke="yellow" stroke-width="2" />
<line x1="1339" y1="720" x2="1339" y2="700" stroke="yellow" stroke-width="2" />
<line x1="1339" y1="700" x2="1319" y2="700" stroke="yellow" stroke-width="2" />
<line x1="1319" y1="700" x2="1299" y2="700" stroke="yellow" stroke-width="2" />
<line x1="1299" y1="700" x2="1299" y2="720" stroke="yellow" stroke-width="2" />
<line x1="1299" y1="720" x2="1319" y2="720" stroke="yellow" stroke-width="2" />
<line x1="1319" y1="720" x2="1319" y2="700" stroke="yellow" stroke-width="2" />
</svg>
