<?xml version="1.0"?>
<!-- Generated by SVGo -->
<svg width="1500" height="1500"
     xmlns="http://www.w3.org/2000/svg" 
     xmlns:xlink="http://www.w3.org/1999/xlink">
<line x1="750" y1="750" x2="1050" y2="750" stroke="black" stroke-width="2" />
<line x1="1050" y1="750" x2="764" y2="841" stroke="black" stroke-width="2" />
<line x1="764" y1="841" x2="478" y2="750" stroke="black" stroke-width="2" />
<line x1="478" y1="750" x2="778" y2="750" stroke="black" stroke-width="2" />
<line x1="778" y1="750" x2="492" y2="841" stroke="black" stroke-width="2" />
<line x1="492" y1="841" x2="737" y2="667" stroke="black" stroke-width="2" />
<line x1="737" y1="667" x2="1037" y2="667" stroke="black" stroke-width="2" />
<line x1="1037" y1="667" x2="751" y2="758" stroke="black" stroke-width="2" />
<line x1="751" y1="758" x2="465" y2="667" stroke="black" stroke-width="2" />
<line x1="465" y1="667" x2="765" y2="667" stroke="black" stroke-width="2" />
<line x1="765" y1="667" x2="1009" y2="841" stroke="black" stroke-width="2" />
<line x1="1009" y1="841" x2="724" y2="750" stroke="black" stroke-width="2" />
<line x1="724" y1="750" x2="1024" y2="750" stroke="black" stroke-width="2" />
<line x1="1024" y1="750" x2="738" y2="841" stroke="black" stroke-width="2" />
<line x1="738" y1="841" x2="452" y2="750" stroke="black" stroke-width="2" />
<line x1="452" y1="750" x2="752" y2="750" stroke="black" stroke-width="2" />
<line x1="752" y1="750" x2="996" y2="924" stroke="black" stroke-width="2" />
<line x1="996" y1="924" x2="711" y2="832" stroke="black" stroke-width="2" />
<line x1="711" y1="832" x2="531" y2="592" stroke="black" stroke-width="2" />
<line x1="531" y1="592" x2="775" y2="766" stroke="black" stroke-width="2" />
<line x1="775" y1="766" x2="490" y2="675" stroke="black" stroke-width="2" />
<line x1="490" y1="675" x2="790" y2="675" stroke="black" stroke-width="2" />
<line x1="790" y1="675" x2="1034" y2="849" stroke="black" stroke-width="2" />
<line x1="1034" y1="849" x2="748" y2="757" stroke="black" stroke-width="2" />
<line x1="748" y1="757" x2="569" y2="517" stroke="black" stroke-width="2" />
<line x1="569" y1="517" x2="813" y2="691" stroke="black" stroke-width="2" />
<line x1="813" y1="691" x2="911" y2="975" stroke="black" stroke-width="2" />
<line x1="911" y1="975" x2="731" y2="735" stroke="black" stroke-width="2" />
<line x1="731" y1="735" x2="975" y2="909" stroke="black" stroke-width="2" />
<line x1="975" y1="909" x2="690" y2="817" stroke="black" stroke-width="2" />
<line x1="690" y1="817" x2="510" y2="577" stroke="black" stroke-width="2" />
<line x1="510" y1="577" x2="754" y2="751" stroke="black" stroke-width="2" />
<line x1="754" y1="751" x2="852" y2="1035" stroke="black" stroke-width="2" />
<line x1="852" y1="1035" x2="673" y2="794" stroke="black" stroke-width="2" />
<line x1="673" y1="794" x2="666" y2="494" stroke="black" stroke-width="2" />
<line x1="666" y1="494" x2="764" y2="778" stroke="black" stroke-width="2" />
<line x1="764" y1="778" x2="584" y2="538" stroke="black" stroke-width="2" />
<line x1="584" y1="538" x2="828" y2="712" stroke="black" stroke-width="2" />
<line x1="828" y1="712" x2="926" y2="996" stroke="black" stroke-width="2" />
<line x1="926" y1="996" x2="747" y2="755" stroke="black" stroke-width="2" />
<line x1="747" y1="755" x2="740" y2="455" stroke="black" stroke-width="2" />
<line x1="740" y1="455" x2="838" y2="739" stroke="black" stroke-width="2" />
<line x1="838" y1="739" x2="753" y2="1027" stroke="black" stroke-width="2" />
<line x1="753" y1="1027" x2="746" y2="727" stroke="black" stroke-width="2" />
<line x1="746" y1="727" x2="844" y2="1010" stroke="black" stroke-width="2" />
<line x1="844" y1="1010" x2="664" y2="770" stroke="black" stroke-width="2" />
<line x1="664" y1="770" x2="658" y2="470" stroke="black" stroke-width="2" />
<line x1="658" y1="470" x2="755" y2="754" stroke="black" stroke-width="2" />
</svg>
